<svg width="9" height="46" viewBox="0 0 9 46" fill="none" xmlns="http://www.w3.org/2000/svg"><path d="M8.763 42.01L1.847 24.444c-.151-.384-.236-.901-.236-1.44 0-.54.085-1.057.236-1.44L8.762 3.99c.152-.385.236-.905.236-1.445 0-.541-.084-1.06-.236-1.446a1.372 1.372 0 00-.26-.444C8.404.553 8.299.5 8.192.5c-.105 0-.21.053-.308.156a1.372 1.372 0 00-.26.444L.709 18.664C.255 19.821 0 21.378 0 23s.255 3.178.709 4.335l6.915 17.564c.074.19.162.342.26.445.098.104.203.157.31.157.106 0 .21-.053.309-.157.098-.103.186-.255.26-.445.152-.386.237-.905.237-1.446 0-.54-.085-1.06-.237-1.445" fill="#fff"/></svg>