<svg width="40" height="45" viewBox="0 0 40 45" fill="none" xmlns="http://www.w3.org/2000/svg"><path fill-rule="evenodd" clip-rule="evenodd" d="M38.978 12.362l.033.057c.137.237.192.499.174.752.002.038.003.076.003.115v28.613a3.105 3.105 0 01-3.1 3.101H3.1A3.105 3.105 0 010 41.899V13.39c0-.273.05-.534.139-.776.029-.105.07-.21.128-.309L6.629 1.267A2.538 2.538 0 018.822 0h21.545c.901 0 1.74.484 2.192 1.264l6.26 10.823c.06.087.113.18.159.275zm-8.672-9.724h-9.348v8.514h14.273l-4.925-8.514zm-11.986 0H8.883l-4.907 8.514H18.32V2.638zm17.767 39.724a.464.464 0 00.464-.463v-28.11H2.638V41.9c0 .255.208.463.463.463h32.986zm-12.37-18.63a1.319 1.319 0 011.864 1.866l-6.821 6.821a1.315 1.315 0 01-1.865 0l-3.197-3.196a1.319 1.319 0 011.865-1.866l2.264 2.265 5.89-5.89z" fill="#fff"/></svg>