<svg width="50" height="50" viewBox="0 0 50 50" fill="none" xmlns="http://www.w3.org/2000/svg"><path fill-rule="evenodd" clip-rule="evenodd" d="M31.223 8.406a6.228 6.228 0 015.87 4.148H18.777a10.37 10.37 0 00-10.37 10.37v10.019a6.224 6.224 0 01-4.148-5.87V14.629a6.222 6.222 0 016.222-6.223h20.74zm8.296 8.296h-20.74a6.222 6.222 0 00-6.223 6.223v12.444a6.222 6.222 0 006.222 6.222H39.52a6.222 6.222 0 006.222-6.222V22.925a6.222 6.222 0 00-6.222-6.223zm-6.222 12.445a4.148 4.148 0 11-8.296 0 4.148 4.148 0 018.296 0z" fill="url(#paint0_linear_66_1845)"/><defs><linearGradient id="paint0_linear_66_1845" x1="11.822" y1="57.838" x2="58.184" y2="12.711" gradientUnits="userSpaceOnUse"><stop stop-color="#982DEC"/><stop offset=".573" stop-color="#DC8DF8"/><stop offset=".896" stop-color="#A9C4F3"/></linearGradient></defs></svg>