<svg width="185" height="48" viewBox="0 0 185 48" fill="none" xmlns="http://www.w3.org/2000/svg"><path d="M34.482 45.184a23.5 23.5 0 11.244-42.249l-5.083 10.279a12.033 12.033 0 10-.125 21.633l4.964 10.337z" fill="url(#paint0_linear_69_2193)"/><circle cx="24.029" cy="23.721" fill="#B982FF" r="8.113"/><path d="M181.408 31.776a2.733 2.733 0 01-1.979-.806 2.657 2.657 0 01-.805-1.979 2.59 2.59 0 01.805-1.939 2.733 2.733 0 011.979-.805c.729 0 1.372.268 1.929.805.563.537.848 1.184.855 1.94a2.682 2.682 0 01-.408 1.411 2.991 2.991 0 01-1.014 1.005 2.645 2.645 0 01-1.362.367z" fill="#B982FF"/><path d="M165.769 37.185c-.629 0-1.229-.05-1.799-.15a7.604 7.604 0 01-1.502-.387l1.193-3.898a5.96 5.96 0 001.233.308c.378.047.7.02.965-.08a.99.99 0 00.587-.566l.119-.279-5.369-15.948h5.727l2.466 10.58h.159l2.506-10.58h5.767l-5.569 16.545a7.296 7.296 0 01-1.213 2.267c-.523.676-1.213 1.21-2.068 1.6-.855.392-1.922.588-3.202.588zm-6.137-26.091v20.363h-5.488V11.094h5.488zm-8.285 0v20.363h-5.489V11.094h5.489zm-15.631 20.642c-1.657 0-3.075-.328-4.255-.984a6.772 6.772 0 01-2.715-2.764c-.63-1.187-.944-2.562-.944-4.127 0-1.564.314-2.936.944-4.116a6.693 6.693 0 012.715-2.764c1.18-.663 2.598-.995 4.255-.995s3.076.332 4.256.995a6.685 6.685 0 012.714 2.764c.63 1.18.945 2.552.945 4.116 0 1.565-.315 2.94-.945 4.127a6.763 6.763 0 01-2.714 2.764c-1.18.656-2.599.984-4.256.984zm.04-4.056c.464 0 .865-.156 1.203-.468.338-.311.6-.756.786-1.332.185-.577.278-1.263.278-2.058 0-.802-.093-1.489-.278-2.059-.186-.576-.448-1.02-.786-1.332a1.715 1.715 0 00-1.203-.467c-.49 0-.911.155-1.263.467-.351.311-.62.756-.805 1.332-.186.57-.279 1.256-.279 2.059 0 .795.093 1.481.279 2.058.185.576.454 1.02.805 1.332a1.84 1.84 0 001.263.468zm-9.473-11.496v3.978H116.22v-3.977h10.063zm-8.114-3.659h5.489v14.02c0 .212.036.391.109.537a.72.72 0 00.338.318c.153.067.348.1.587.1.166 0 .358-.02.577-.06.225-.04.391-.073.497-.1l.795 3.859c-.245.073-.596.162-1.054.268a9.294 9.294 0 01-1.611.209c-1.259.066-2.316-.063-3.172-.388-.855-.331-1.498-.852-1.928-1.56-.431-.71-.64-1.598-.627-2.666V12.525zm-19.123 24.66v-21h5.449v2.665h.119a4.62 4.62 0 01.875-1.422 4.174 4.174 0 011.432-1.044c.57-.265 1.233-.398 1.989-.398 1.007 0 1.965.269 2.873.806.915.537 1.657 1.382 2.227 2.535.577 1.154.865 2.652.865 4.495 0 1.763-.275 3.225-.825 4.384-.543 1.16-1.273 2.026-2.187 2.596a5.52 5.52 0 01-2.993.855c-.716 0-1.356-.116-1.919-.348a4.434 4.434 0 01-1.432-.965 4.46 4.46 0 01-.905-1.392h-.079v8.233h-5.49zm5.369-13.363c0 .742.096 1.385.289 1.928.198.538.477.955.835 1.253.364.292.799.438 1.302.438.504 0 .932-.143 1.283-.428.358-.291.63-.706.815-1.243.193-.543.289-1.193.289-1.948 0-.756-.096-1.402-.289-1.94-.185-.543-.457-.957-.815-1.242-.351-.292-.779-.438-1.283-.438-.503 0-.938.146-1.302.438-.358.285-.637.7-.835 1.243-.193.537-.289 1.183-.289 1.939zM85.433 37.185c-.63 0-1.23-.05-1.8-.15a7.595 7.595 0 01-1.5-.387l1.193-3.898c.45.159.861.262 1.233.308.377.047.699.02.964-.08a.989.989 0 00.587-.566l.119-.279-5.37-15.948h5.728l2.466 10.58h.159l2.506-10.58h5.767L91.916 32.73a7.319 7.319 0 01-1.213 2.267c-.523.676-1.213 1.21-2.068 1.6-.855.392-1.922.588-3.202.588zm-15.946-5.727V16.185h5.33v2.904h.159c.278-1.074.72-1.86 1.322-2.357.61-.497 1.323-.746 2.138-.746.239 0 .474.02.706.06.239.033.468.083.686.15v4.682a4.914 4.914 0 00-1.004-.208 9.032 9.032 0 00-1.024-.07c-.537 0-1.021.123-1.452.368a2.593 2.593 0 00-1.004 1.014c-.245.43-.368.938-.368 1.521v7.955h-5.489zM66.9 18.73h-5.61a3.803 3.803 0 00-.318-1.263 2.853 2.853 0 00-.696-.974 2.904 2.904 0 00-1.064-.636 4.13 4.13 0 00-1.422-.23c-.927 0-1.713.226-2.356.677-.636.45-1.12 1.097-1.452 1.939-.325.842-.487 1.853-.487 3.033 0 1.246.166 2.29.497 3.132.338.835.825 1.465 1.462 1.889.636.418 1.402.626 2.297.626.51 0 .968-.063 1.372-.188a3.22 3.22 0 001.054-.567c.298-.246.54-.54.726-.885.192-.352.321-.746.387-1.184l5.609.04c-.067.862-.309 1.74-.726 2.635-.418.889-1.011 1.71-1.78 2.466-.763.75-1.707 1.352-2.834 1.81-1.127.457-2.436.686-3.928.686-1.869 0-3.546-.401-5.03-1.203-1.479-.802-2.649-1.982-3.51-3.54-.856-1.558-1.283-3.464-1.283-5.717 0-2.267.437-4.177 1.312-5.728.875-1.557 2.055-2.734 3.54-3.53 1.485-.802 3.142-1.203 4.971-1.203 1.286 0 2.47.176 3.55.527a8.54 8.54 0 012.844 1.542 7.611 7.611 0 011.969 2.476c.497.98.798 2.104.904 3.37z" fill="#fff"/><defs><linearGradient id="paint0_linear_69_2193" x1="38.823" y1="5.511" x2="5.474" y2="38.86" gradientUnits="userSpaceOnUse"><stop stop-color="#18C8FF"/><stop offset="1" stop-color="#933FFE"/></linearGradient></defs></svg>