<svg width="45" height="45" viewBox="0 0 45 45" fill="none" xmlns="http://www.w3.org/2000/svg"><path d="M20.625 23.117V2.813a.938.938 0 00-.938-.938C8.832 1.875 0 11.548 0 23.437 0 35.327 9.673 45 21.562 45c5.32 0 8.198-.964 11.847-3.964a.938.938 0 00.144-1.3l-12.928-16.62zm.937 20.008c-10.856 0-19.687-8.831-19.687-19.688 0-10.507 7.487-19.119 16.875-19.66v19.66c0 .209.07.411.199.576l12.555 16.142c-2.961 2.261-5.43 2.97-9.942 2.97z" fill="#fff"/><path d="M23.438 22.5h20.625c.517 0 .937-.42.937-.938C45 9.673 35.327 0 23.437 0a.938.938 0 00-.937.938v20.625c0 .517.42.937.938.937zm.937-20.603c10.112.477 18.251 8.616 18.727 18.728H24.375V1.897zm19.687 22.478h-18.75a.935.935 0 00-.73 1.526L36.77 40.99a.932.932 0 00.664.347.943.943 0 00.705-.25A21.646 21.646 0 0045 25.314a.938.938 0 00-.937-.938zM37.58 39.008L27.276 26.25h15.826a19.78 19.78 0 01-5.522 12.758z" fill="#fff"/></svg>