<svg width="67" height="74" viewBox="0 0 67 74" fill="none" xmlns="http://www.w3.org/2000/svg"><path d="M50.214 0c-7.94 17.517-12.327 26.252-16.75 26.252S24.654 17.517 16.75 0c7.904 17.517 11.674 26.76 9.463 31.613C24 36.466 15.843 36.975 0 36.975c16.424 0 24.581.508 26.43 5.87 1.74 4.991-2.03 14.189-9.68 31.105 7.94-17.517 12.327-26.253 16.75-26.253s8.81 8.736 16.75 26.252c-8.411-18.625-12.11-27.87-8.991-32.491C44.014 37.39 52.135 36.975 67 36.975c-16.75 0-24.907-.555-26.539-6.24C38.975 25.651 42.745 16.5 50.214 0z" fill="#fff"/></svg>