<svg width="45" height="45" viewBox="0 0 45 45" fill="none" xmlns="http://www.w3.org/2000/svg"><path d="M44.6 25.492a2.99 2.99 0 00-2.27-1.463 8.243 8.243 0 00-3.07-13.855 8.227 8.227 0 00-9.766 3.863 8.247 8.247 0 001.97 10.325 8.23 8.23 0 005.253 1.887c.135 0 .263-.015.39-.022l-10.146 5.43c0-.053.015-.105.015-.158a3.752 3.752 0 00-3.747-3.75H8.243a.75.75 0 00-.338.083l-1.955.975a2.25 2.25 0 00-2.203-1.808H2.248A2.254 2.254 0 000 29.25v13.5A2.258 2.258 0 002.248 45h1.499a2.239 2.239 0 002.225-2.04l2.09.518c.06.015.12.022.18.022h10.296a3.798 3.798 0 001.881-.502L43.514 29.58a3 3 0 001.086-4.087zM4.496 42.749a.75.75 0 01-.75.75H2.249a.75.75 0 01-.75-.75v-13.5a.75.75 0 01.75-.75h1.499a.749.749 0 01.749.75v13.5zm32.221-18a6.74 6.74 0 01-6.23-4.166 6.756 6.756 0 011.462-7.356A6.742 6.742 0 0143.46 18a6.763 6.763 0 01-1.978 4.77 6.751 6.751 0 01-4.766 1.98zm6.047 3.533L19.67 41.692a2.25 2.25 0 01-1.132.307H8.333l-2.338-.577V30.464l2.428-1.215h14.806a2.247 2.247 0 012.248 2.25 2.25 2.25 0 01-2.248 2.25H11.99v1.5h11.24a3.722 3.722 0 002.96-1.477l15.092-8.07a1.486 1.486 0 012.155 1.678 1.489 1.489 0 01-.672.902z" fill="#E9EEF4"/><path d="M22.48 0a8.237 8.237 0 00-7.615 5.093 8.257 8.257 0 001.786 8.99A8.24 8.24 0 0030.723 8.25a8.258 8.258 0 00-2.416-5.832A8.244 8.244 0 0022.48 0zm0 15a6.74 6.74 0 01-6.23-4.167 6.755 6.755 0 011.461-7.356A6.743 6.743 0 0129.224 8.25a6.763 6.763 0 01-1.978 4.77A6.752 6.752 0 0122.48 15zM8.243 9.75a8.237 8.237 0 00-7.616 5.093 8.257 8.257 0 001.787 8.99A8.24 8.24 0 0016.485 18a8.258 8.258 0 00-2.415-5.832A8.244 8.244 0 008.243 9.75zm0 15a6.74 6.74 0 01-6.231-4.167 6.755 6.755 0 011.462-7.356A6.742 6.742 0 0114.987 18a6.763 6.763 0 01-1.979 4.77 6.752 6.752 0 01-4.765 1.98zM7.494 2.56V7.5h1.498V2.56l1.718 1.72 1.06-1.06-2.997-3a.749.749 0 00-1.06 0l-2.997 3 1.06 1.06 1.718-1.72zM23.23 26.25v-4.94l1.718 1.72 1.06-1.06-2.998-3a.749.749 0 00-1.06 0l-2.997 3 1.06 1.06 1.718-1.72v4.94h1.499zM35.968 2.56V7.5h1.499V2.56l1.718 1.72 1.06-1.06-2.998-3a.749.749 0 00-1.06 0l-2.997 3 1.06 1.06 1.718-1.72z" fill="#E9EEF4"/><path d="M11.99 16.5a2.241 2.241 0 00-1.507-2.115l.008-1.635H8.992l-.007 1.5h-1.5l.008-1.5H5.995l-.008 1.5h-1.49v1.5h1.498v4.5H4.496v1.5h1.491l-.007 1.47 1.498.007.008-1.477h1.499l-.008 1.47 1.499.007.015-1.612a2.256 2.256 0 001.498-2.115 2.231 2.231 0 00-.584-1.5 2.23 2.23 0 00.584-1.5zm-2.25 3.75H7.493v-1.5h2.248a.75.75 0 010 1.5zm0-3H7.493v-1.5h2.248a.75.75 0 010 1.5zm30.724-.75a2.241 2.241 0 00-1.506-2.115l.007-1.635h-1.498l-.008 1.5h-1.498l.007-1.5h-1.499l-.007 1.5H32.97v1.5h1.498v4.5H32.97v1.5h1.49l-.007 1.47 1.5.007.007-1.477h1.498l-.007 1.47 1.498.007.015-1.612a2.256 2.256 0 001.499-2.115 2.231 2.231 0 00-.584-1.5c.374-.41.583-.945.584-1.5zm-2.248 3.75h-2.248v-1.5h2.248a.75.75 0 010 1.5zm0-3h-2.248v-1.5h2.248a.75.75 0 110 1.5zM26.227 6.75a2.24 2.24 0 00-1.506-2.115L24.728 3H23.23l-.007 1.5h-1.499l.008-1.5h-1.499l-.007 1.5h-1.492V6h1.5v4.5h-1.5V12h1.492l-.008 1.47 1.499.007.007-1.477h1.499l-.008 1.47 1.5.007.014-1.612a2.256 2.256 0 001.499-2.115 2.231 2.231 0 00-.585-1.5c.375-.41.583-.945.585-1.5zm-2.248 3.75H21.73V9h2.248a.749.749 0 110 1.5zm0-3H21.73V6h2.248a.749.749 0 110 1.5z" fill="#E9EEF4"/></svg>