<svg width="50" height="50" viewBox="0 0 50 50" fill="none" xmlns="http://www.w3.org/2000/svg"><path d="M20.022 12.556a2.49 2.49 0 000 4.978h13.903l-3.218 3.218a2.489 2.489 0 003.52 3.519l7.466-7.467a2.489 2.489 0 000-3.519l-7.467-7.467a2.489 2.489 0 10-3.52 3.52l3.219 3.218H20.022z" fill="url(#paint0_linear_66_1828)"/><path d="M29.978 37.445a2.49 2.49 0 000-4.978H16.075l3.218-3.218a2.49 2.49 0 10-3.52-3.52l-7.466 7.467a2.489 2.489 0 000 3.52l7.466 7.466a2.489 2.489 0 003.52-3.52l-3.218-3.217h13.903z" fill="url(#paint1_linear_66_1828)"/><defs><linearGradient id="paint0_linear_66_1828" x1="13.93" y1="64.377" x2="65.725" y2="29.087" gradientUnits="userSpaceOnUse"><stop stop-color="#982DEC"/><stop offset="0" stop-color="#DC8DF8"/><stop offset=".896" stop-color="#A9C4F3"/></linearGradient><linearGradient id="paint1_linear_66_1828" x1="13.93" y1="64.377" x2="65.725" y2="29.087" gradientUnits="userSpaceOnUse"><stop stop-color="#982DEC"/><stop offset="0" stop-color="#DC8DF8"/><stop offset=".896" stop-color="#A9C4F3"/></linearGradient></defs></svg>